<svg xmlns="http://www.w3.org/2000/svg" xmlns:xlink="http://www.w3.org/1999/xlink" width="83" height="96" viewBox="0 0 83 96">
    <defs>
        <path id="prefix__a" d="M0 0L0 1.636 6.136 1.636 6.136 0z"/>
        <path id="prefix__c" d="M4.805 0.053L4.805 4.842 0.016 4.842 0.016 0.053 4.805 0.053z"/>
    </defs>
    <g fill="none" fill-rule="evenodd">
        <path fill="#48B3FF" d="M0 91.8L56.045 91.8 56.045 91.391 0 91.391z"/>
        <path fill="#ADE4FC" d="M21.273 81.982L58.091 81.982 58.091 10.391 21.273 10.391z"/>
        <path fill="#0089ED" d="M54.818 6.3l5.31.005c1.814.002 3.283 1.73 3.281 3.858l-.076 75.331c-.002 2.129-1.475 3.853-3.29 3.851l-3.87-.004 1.727-79.16L54.818 6.3z"/>
        <g>
            <path fill="#249F5A" d="M14.234 20.757H.455c-.251 0-.455-.204-.455-.456v-5.487c0-.251.204-.455.455-.455h13.78c.25 0 .454.204.454.455V20.3c0 .252-.203.456-.455.456" transform="translate(4.5 70.936)"/>
            <path fill="#33BA71" d="M14.234 20.18H.455c-.251 0-.455-.203-.455-.454v-5.488c0-.251.204-.455.455-.455h13.78c.25 0 .454.204.454.455v5.488c0 .251-.203.455-.455.455" transform="translate(4.5 70.936)"/>
            <path fill="#249F5A" d="M14.234 19.49H.455c-.251 0-.455-.204-.455-.455v-5.488c0-.251.204-.455.455-.455h13.78c.25 0 .454.204.454.455v5.488c0 .251-.203.455-.455.455" transform="translate(4.5 70.936)"/>
            <path fill="#33BA71" d="M14.234 18.914H.455c-.251 0-.455-.204-.455-.455V12.97c0-.251.204-.455.455-.455h13.78c.25 0 .454.204.454.455v5.488c0 .251-.203.455-.455.455" transform="translate(4.5 70.936)"/>
            <path fill="#249F5A" d="M14.234 18.287H.455c-.251 0-.455-.204-.455-.455v-5.488c0-.25.204-.455.455-.455h13.78c.25 0 .454.204.454.455v5.488c0 .251-.203.455-.455.455" transform="translate(4.5 70.936)"/>
            <path fill="#33BA71" d="M14.234 17.711H.455c-.251 0-.455-.203-.455-.455V11.77c0-.252.204-.456.455-.456h13.78c.25 0 .454.204.454.456v5.487c0 .252-.203.455-.455.455" transform="translate(4.5 70.936)"/>
            <path fill="#249F5A" d="M14.234 18.32H.455c-.251 0-.455-.205-.455-.456v-5.488c0-.251.204-.455.455-.455h13.78c.25 0 .454.204.454.455v5.488c0 .251-.203.455-.455.455" transform="translate(4.5 70.936)"/>
            <path fill="#33BA71" d="M14.234 17.743H.455c-.251 0-.455-.203-.455-.455v-5.487c0-.252.204-.455.455-.455h13.78c.25 0 .454.203.454.455v5.487c0 .252-.203.455-.455.455" transform="translate(4.5 70.936)"/>
            <path fill="#249F5A" d="M14.234 16.982H.455c-.251 0-.455-.204-.455-.455v-5.488c0-.251.204-.455.455-.455h13.78c.25 0 .454.204.454.455v5.488c0 .251-.203.455-.455.455" transform="translate(4.5 70.936)"/>
            <path fill="#33BA71" d="M14.234 16.406H.455c-.251 0-.455-.204-.455-.455v-5.488c0-.25.204-.455.455-.455h13.78c.25 0 .454.204.454.455v5.488c0 .251-.203.455-.455.455" transform="translate(4.5 70.936)"/>
            <path fill="#249F5A" d="M14.234 15.715H.455c-.251 0-.455-.204-.455-.455V9.772c0-.25.204-.455.455-.455h13.78c.25 0 .454.204.454.455v5.488c0 .251-.203.455-.455.455" transform="translate(4.5 70.936)"/>
            <path fill="#33BA71" d="M14.234 15.14H.455c-.251 0-.455-.205-.455-.456V9.197c0-.252.204-.455.455-.455h13.78c.25 0 .454.203.454.455v5.487c0 .251-.203.455-.455.455" transform="translate(4.5 70.936)"/>
            <path fill="#249F5A" d="M12.008 14.365H2.68c0-.5-.404-.904-.904-.904V10.42c.5 0 .904-.405.904-.904h9.327c0 .499.405.904.904.904v3.041c-.5 0-.904.405-.904.904" transform="translate(4.5 70.936)"/>
            <path fill="#E6E6E6" d="M10.775 15.715H4.556V8.79c0-.194.157-.35.35-.35h5.519c.193 0 .35.156.35.35v6.925z" transform="translate(4.5 70.936)"/>
            <path fill="#B3B3B3" d="M10.618 21.07H4.713c-.086 0-.157-.07-.157-.157v-5.198h6.219v5.198c0 .087-.07.157-.157.157" transform="translate(4.5 70.936)"/>
            <path fill="#2461AB" d="M8.144 10.94c.023.01.033.027.032.052-.001.045 0 .09-.002.134 0 .018-.013.032-.03.035-.009.002-.017.003-.026.003H7.821c.003.006.004.01.007.013.035.05.06.105.073.165.003.014.01.017.022.016h.202c.04 0 .053.014.054.053v.118c0 .038-.015.053-.053.053h-.2c-.013 0-.018.003-.02.017-.019.101-.063.191-.135.265-.057.058-.125.101-.2.13-.06.024-.12.04-.183.048l-.022.003.006.01c.059.066.118.13.176.197l.18.21.242.291.004.005c.031.033.02.062-.012.08h-.253c-.026 0-.05-.01-.067-.028-.048-.056-.094-.113-.142-.168-.04-.049-.082-.097-.124-.145l-.21-.24c-.06-.068-.12-.134-.181-.2-.011-.012-.016-.025-.016-.041v-.156c0-.035.017-.052.052-.052h.14c.082 0 .163-.007.241-.037.06-.022.11-.055.148-.108.016-.024.029-.05.037-.081h-.558c-.009 0-.017 0-.026-.002-.018-.003-.032-.02-.032-.039-.002-.048-.002-.098 0-.146 0-.022.015-.034.036-.036h.56l-.005-.013c-.03-.051-.075-.083-.129-.104-.066-.026-.135-.035-.205-.035h-.206c-.04-.001-.056-.02-.053-.063.003-.049.002-.098 0-.148-.001-.026.007-.046.032-.056h1.143z" transform="translate(4.5 70.936)"/>
            <path stroke="#2461AB" stroke-width=".5" d="M5.273 20.661L10.005 20.661 10.005 9.516 5.273 9.516z" transform="translate(4.5 70.936)"/>
            <path fill="#808184" d="M9.229 9.576c0 .547-1.615.99-3.606.99-1.992 0-3.606-.443-3.606-.99 0-.547 1.614-.99 3.606-.99 1.991 0 3.606.443 3.606.99" transform="translate(4.5 70.936)"/>
            <path fill="#D09800" d="M7.746 8.824c0 .605-1.348 1.096-3.011 1.096-1.664 0-3.013-.49-3.013-1.096V8.23h6.024v.594z" transform="translate(4.5 70.936)"/>
            <path fill="#F2DC35" d="M7.746 8.116c0 .606-1.348 1.096-3.011 1.096-1.664 0-3.013-.49-3.013-1.096 0-.605 1.349-1.096 3.013-1.096 1.663 0 3.011.491 3.011 1.096" transform="translate(4.5 70.936)"/>
            <path fill="#D09800" d="M7.524 7.728c0 .605-1.349 1.096-3.012 1.096-1.664 0-3.012-.49-3.012-1.096v-.594h6.024v.594z" transform="translate(4.5 70.936)"/>
            <path fill="#F2DC35" d="M7.524 7.02c0 .606-1.349 1.096-3.012 1.096-1.664 0-3.012-.49-3.012-1.096 0-.605 1.348-1.095 3.012-1.095 1.663 0 3.012.49 3.012 1.095" transform="translate(4.5 70.936)"/>
            <path fill="#D09800" d="M7.746 6.518c0 .605-1.348 1.096-3.011 1.096-1.664 0-3.013-.49-3.013-1.096v-.593h6.024v.593z" transform="translate(4.5 70.936)"/>
            <path fill="#F2DC35" d="M7.746 5.81c0 .606-1.348 1.096-3.011 1.096-1.664 0-3.013-.49-3.013-1.096 0-.605 1.349-1.095 3.013-1.095 1.663 0 3.011.49 3.011 1.095" transform="translate(4.5 70.936)"/>
            <path fill="#D09800" d="M7.524 5.445c0 .605-1.349 1.096-3.012 1.096-1.664 0-3.012-.49-3.012-1.096v-.593h6.024v.593z" transform="translate(4.5 70.936)"/>
            <path fill="#F2DC35" d="M7.524 4.737c0 .606-1.349 1.096-3.012 1.096-1.664 0-3.012-.49-3.012-1.096 0-.605 1.348-1.095 3.012-1.095 1.663 0 3.012.49 3.012 1.095" transform="translate(4.5 70.936)"/>
            <path fill="#D09800" d="M7.746 4.463c0 .606-1.348 1.096-3.011 1.096-1.664 0-3.013-.49-3.013-1.096V3.87h6.024v.593z" transform="translate(4.5 70.936)"/>
            <path fill="#F2DC35" d="M7.746 3.756c0 .605-1.348 1.096-3.011 1.096-1.664 0-3.013-.491-3.013-1.096 0-.606 1.349-1.096 3.013-1.096 1.663 0 3.011.49 3.011 1.096" transform="translate(4.5 70.936)"/>
            <path fill="#D09800" d="M7.341 3.253c0 .606-1.348 1.096-3.012 1.096-1.663 0-3.012-.49-3.012-1.096V2.66h6.024v.593z" transform="translate(4.5 70.936)"/>
            <path fill="#F2DC35" d="M7.341 2.546c0 .605-1.348 1.096-3.012 1.096-1.663 0-3.012-.491-3.012-1.096 0-.606 1.349-1.096 3.012-1.096 1.664 0 3.012.49 3.012 1.096" transform="translate(4.5 70.936)"/>
            <path fill="#D4A100" d="M7.341 1.804c0 .605-1.348 1.095-3.012 1.095-1.663 0-3.012-.49-3.012-1.095V1.21h6.024v.594z" transform="translate(4.5 70.936)"/>
            <path fill="#F3DF4D" d="M7.341 1.096c0 .605-1.348 1.096-3.012 1.096-1.663 0-3.012-.49-3.012-1.096C1.317.49 2.666 0 4.33 0c1.664 0 3.012.49 3.012 1.096" transform="translate(4.5 70.936)"/>
            <path fill="#FFF" d="M5.576.972L4.635.428c-.03-.007-.052-.002-.072.011-.039.025-.078.049-.121.07-.038.02-.04.037-.007.055l.168.099c.059.034.108.07.141.114.027.035.037.072.02.111l-.007.007-.014-.008-.43-.248L4.299.63c-.02-.01-.043-.01-.06 0-.042.022-.082.046-.12.069-.015.01-.018.024-.005.034l.019.013.443.257.016.009c-.032.01-.062.018-.095.02-.075.008-.144 0-.21-.018-.09-.023-.163-.058-.23-.097L3.978.873 3.941.85C3.911.834 3.885.833 3.856.85l-.128.074c-.013.008-.02.017-.021.027-.004.06-.008.121-.014.181-.006.072-.015.144-.023.215l-.016.128c-.008.049-.015.097-.021.147-.002.017.01.033.031.046l.208.12c.043.006.075-.002.076-.033V1.75l.04-.253c.01-.062.017-.124.024-.187.007-.058.01-.117.016-.176l.003-.008.02.008c.059.027.122.048.19.066.086.021.176.033.27.032.122 0 .231-.023.33-.061.014-.006.021-.005.032.001l.163.095c.033.018.056.018.087 0l.096-.056c.032-.018.032-.032-.001-.05l-.165-.096c-.012-.007-.015-.011-.006-.02.038-.034.064-.072.075-.112l.004-.01.017.01.228.132.024.01c.017.007.04.006.053-.002.04-.02.074-.041.112-.062.02-.012.028-.025.016-.04" transform="translate(4.5 70.936)"/>
            <path fill="#D09800" d="M14.38 21.216c0 .602-1.34 1.089-2.994 1.089-1.652 0-2.992-.487-2.992-1.089v-.59h5.985v.59z" transform="translate(4.5 70.936)"/>
            <path fill="#F2DC35" d="M14.38 20.513c0 .601-1.34 1.089-2.994 1.089-1.652 0-2.992-.488-2.992-1.09 0-.6 1.34-1.088 2.992-1.088 1.653 0 2.993.487 2.993 1.089" transform="translate(4.5 70.936)"/>
            <path fill="#D09800" d="M14.38 19.776c0 .601-1.34 1.088-2.994 1.088-1.652 0-2.992-.487-2.992-1.088v-.59h5.985v.59z" transform="translate(4.5 70.936)"/>
            <path fill="#F2DC35" d="M14.38 19.072c0 .602-1.34 1.09-2.994 1.09-1.652 0-2.992-.488-2.992-1.09 0-.601 1.34-1.088 2.992-1.088 1.653 0 2.993.487 2.993 1.088" transform="translate(4.5 70.936)"/>
            <path fill="#CB8E00" d="M15.965 21.367c0-1.322-1.072-2.394-2.394-2.394-1.323 0-2.395 1.072-2.395 2.394 0 1.323 1.072 2.395 2.395 2.395 1.322 0 2.394-1.072 2.394-2.395" transform="translate(4.5 70.936)"/>
            <g opacity=".12" transform="translate(4.5 70.936) translate(11.455 22.5)">
                <mask id="prefix__b" fill="#fff">
                    <use xlink:href="#prefix__a"/>
                </mask>
                <path fill="#808184" d="M6.136.818c0 .452-1.373.818-3.068.818C1.374 1.636 0 1.27 0 .818 0 .366 1.374 0 3.068 0c1.695 0 3.068.366 3.068.818" mask="url(#prefix__b)"/>
            </g>
            <g transform="translate(4.5 70.936) translate(11.521 19.057)">
                <mask id="prefix__d" fill="#fff">
                    <use xlink:href="#prefix__c"/>
                </mask>
                <path fill="#F2DC35" d="M4.805 2.448C4.805 1.125 3.733.053 2.41.053 1.088.053.016 1.125.016 2.448c0 1.322 1.072 2.394 2.394 2.394 1.323 0 2.395-1.072 2.395-2.394" mask="url(#prefix__d)"/>
            </g>
            <path fill="#FFF" d="M14.631 20.626c.029.012.04.034.04.065-.001.054 0 .11-.002.164 0 .021-.017.039-.038.043-.01.002-.02.003-.031.003H14.235l.008.016c.044.06.073.129.09.202.004.017.012.02.028.02h.247c.048 0 .066.018.066.065v.145c0 .047-.018.064-.064.065h-.246c-.016 0-.022.003-.025.02-.023.125-.076.236-.166.327-.07.07-.153.123-.246.16-.072.028-.147.047-.224.057l-.027.005c.004.005.006.01.009.012l.215.241c.075.086.148.172.221.258l.297.358.005.005c.038.04.024.076-.015.1h-.31c-.032 0-.062-.012-.083-.036l-.174-.206-.152-.178c-.086-.099-.17-.198-.258-.295-.073-.083-.148-.164-.222-.245-.014-.015-.02-.03-.02-.05v-.192c0-.043.021-.063.065-.063h.17c.102 0 .201-.01.297-.046.073-.027.136-.068.181-.133.02-.029.036-.061.045-.099h-.684l-.032-.003c-.023-.003-.04-.024-.04-.047-.001-.06-.002-.12 0-.18.001-.026.019-.04.045-.044h.686l-.005-.015c-.036-.063-.092-.103-.158-.129-.08-.031-.165-.043-.251-.043h-.253c-.049 0-.069-.024-.066-.076.004-.06.003-.121 0-.182-.002-.032.009-.056.04-.069h1.402z" transform="translate(4.5 70.936)"/>
        </g>
        <path fill="#0064C0" d="M56.837 16.199l-.065 62.113-34.651-.035.067-66.546-.002 4.433 34.651.035zm5.34-1.494l.005-4.01c.002-2.404-1.852-4.356-4.14-4.358L20.996 6.3c-2.289-.002-4.147 1.945-4.15 4.35l-.074 74.3c-.003 2.405 1.851 4.356 4.14 4.358l37.044.037c2.29.003 4.147-1.945 4.15-4.35l.065-64.59.006-5.7z"/>
        <path fill="#0089ED" d="M42.545 83.825c.002-1.468-1.187-2.66-2.656-2.661-1.468-.002-2.66 1.188-2.662 2.656-.001 1.469 1.188 2.66 2.657 2.662 1.468.001 2.66-1.188 2.661-2.657"/>
        <path fill="#0071CB" d="M50.727 46.186c0-5.987-4.853-10.84-10.84-10.84-5.988 0-10.842 4.853-10.842 10.84 0 5.988 4.854 10.841 10.841 10.841 5.988 0 10.841-4.853 10.841-10.84"/>
        <path fill="#48B3FF" d="M45 46.186c0-3.05-2.473-5.522-5.523-5.522s-5.522 2.472-5.522 5.522c0 3.05 2.472 5.523 5.522 5.523 3.05 0 5.523-2.473 5.523-5.523"/>
        <path fill="#0071CB" d="M41.318 46.186c0-1.016-.824-1.84-1.84-1.84-1.017 0-1.842.824-1.842 1.84 0 1.017.825 1.841 1.841 1.841 1.017 0 1.841-.824 1.841-1.84"/>
        <path fill="#48B3FF" d="M39.682 39.436L40.909 39.436 40.909 38.209 39.682 38.209zM47.045 47.209L48.273 47.209 48.273 45.982 47.045 45.982zM31.5 47.209L32.727 47.209 32.727 45.982 31.5 45.982zM39.273 54.982L40.5 54.982 40.5 53.755 39.273 53.755zM45 41.891L46.227 41.891 46.227 40.664 45 40.664zM33.545 41.482L34.773 41.482 34.773 40.255 33.545 40.255zM45 52.118L46.227 52.118 46.227 50.891 45 50.891zM33.955 52.527L35.182 52.527 35.182 51.3 33.955 51.3z"/>
        <path fill="#0089ED" d="M19.636 39.845L21.682 39.845 21.682 23.482 19.636 23.482zM19.636 68.891L21.682 68.891 21.682 52.527 19.636 52.527z"/>
        <path fill="#FFF" d="M35.614 45.982c-.037 0-.075-.005-.113-.015-.23-.059-.366-.286-.304-.506.592-2.102 2.595-3.57 4.872-3.57.238 0 .431.185.431.413 0 .228-.193.413-.431.413-1.888 0-3.548 1.217-4.04 2.96-.051.183-.225.305-.415.305" opacity=".5"/>
        <path fill="#0071CB" d="M28.227 69.709L30.682 69.709 30.682 67.255 28.227 67.255zM35.182 69.709L37.636 69.709 37.636 67.255 35.182 67.255z"/>
        <path fill="#0089ED" d="M42.136 69.709L44.591 69.709 44.591 67.255 42.136 67.255zM49.909 69.709L52.364 69.709 52.364 67.255 49.909 67.255zM31.441 91.39H27.06c-.485 0-.877-.36-.877-.807v-1.238h6.136v1.238c0 .446-.392.808-.877.808"/>
        <path fill="#48B3FF" d="M69.955 90.982L82.227 90.982 82.227 90.573 69.955 90.573z"/>
        <path fill="#0089ED" d="M47.284 12.436H34.125c-.32 0-.58-.274-.58-.613 0-.34.26-.614.58-.614h13.159c.32 0 .58.275.58.614 0 .339-.26.613-.58.613M31.5 12.027c0-.452-.366-.818-.818-.818-.452 0-.818.366-.818.818 0 .452.366.818.818.818.452 0 .818-.366.818-.818"/>
        <path fill="#F9D523" d="M78.136 61.61S47.3 63.84 59.76 95.482c0 0-2.091-1.179-4.943-3.165-3.163-2.203-7.244-5.496-10.049-11.37-2.275-4.765-3.782-12.143-3.386-19.337 0 0 13.959-5.905 18.378-9.9 0 0 9.62 6.952 18.377 9.9"/>
        <path fill="#0089ED" d="M26.182 90.164L32.318 90.164 32.318 89.345 26.182 89.345z"/>
        <path fill="#D8AA20" d="M61.309 51.3c5.797 4.459 12.468 7.647 18.873 9.977 0 23.485-10.639 29.051-19.32 34.614-8.682-5.563-17.907-10.408-17.907-33.892 6.405-2.331 12.556-6.24 18.354-10.699"/>
        <path fill="#F7E143" d="M59.727 51.71c5.812 4.423 11.989 7.587 18.41 9.9 0 23.304-9.707 28.352-18.41 33.872-8.703-5.52-18.409-10.568-18.409-33.872 6.42-2.313 12.597-5.477 18.41-9.9"/>
        <path stroke="#D8AA20" stroke-width="1.227" d="M59.727 54.573c5.166 3.928 10.656 6.737 16.364 8.79 0 20.691-8.628 25.172-16.364 30.073-7.736-4.9-16.363-9.382-16.363-30.073 5.707-2.053 11.197-4.862 16.363-8.79z" opacity=".6"/>
        <circle cx="36.45" cy="1.35" r="1.35" fill="#49B2FF" fill-rule="nonzero" opacity=".4"/>
        <circle cx="13.05" cy="1.35" r="1.35" fill="#49B2FF" fill-rule="nonzero" opacity=".4"/>
        <circle cx="9.45" cy="19.927" r="2.25" fill="#49B2FF" fill-rule="nonzero" opacity=".4"/>
        <path fill="#D2A912" d="M67.09 72.777c0-4.18-3.387-7.568-7.567-7.568s-7.568 3.389-7.568 7.568c0 4.18 3.388 7.568 7.568 7.568s7.568-3.388 7.568-7.568"/>
        <path stroke="#FFF" stroke-linecap="round" stroke-linejoin="round" stroke-width="1.636" d="M55.636 73.807L57.375 75.845 62.591 70.118"/>
    </g>
</svg>
